<!-- icon666.com - MILLIONS OF FREE VECTOR ICONS --><svg version="1.1" id="Layer_1" xmlns="http://www.w3.org/2000/svg" xmlns:xlink="http://www.w3.org/1999/xlink" x="0px" y="0px" viewBox="0 0 354.038 354.038" style="enable-background:new 0 0 354.038 354.038;" xml:space="preserve"><g><g><g><path d="M301.524,158.131C287.656,71.73,187.913,30.924,117.411,80.322c-18.057,12.652-32.06,29.84-40.727,49.925 c-19.964,1.393-38.533,9.883-52.743,24.216C-27.528,206.38,9.517,295.028,82.538,295.028h202c38.322,0,69.5-31.178,69.5-69.5 C354.038,193.306,332.267,165.799,301.524,158.131z M284.538,280.028h-202c-37.22,0-67.5-30.28-67.5-67.5 c0-36.857,29.985-67.129,66.843-67.482c0.127-0.001,0.25-0.025,0.376-0.032c0.094,0.003,0.186,0.014,0.281,0.014 c18.721,0,36.764,7.877,49.501,21.61c1.478,1.594,3.486,2.4,5.501,2.4c6.478,0,9.968-7.78,5.497-12.6 c-13.171-14.2-30.988-23.249-50.017-25.707c7.637-15.188,18.894-28.241,32.998-38.123c63.284-44.342,152.47-5.301,161.344,72.633 c0.379,3.326,2.916,5.998,6.218,6.549c26.34,4.396,45.458,26.997,45.458,53.739C339.038,255.579,314.589,280.028,284.538,280.028 z" fill="#000000" style="fill: rgb(255, 255, 255);"></path><path d="M245.038,255.028h-66c-4.142,0-7.5,3.358-7.5,7.5c0,4.142,3.358,7.5,7.5,7.5h66c4.143,0,7.5-3.358,7.5-7.5 C252.538,258.386,249.18,255.028,245.038,255.028z" fill="#000000" style="fill: rgb(255, 255, 255);"></path></g></g></g></svg>