<!-- icon666.com - MILLIONS OF FREE VECTOR ICONS --><svg version="1.1" xmlns="http://www.w3.org/2000/svg" viewBox="0 0 512 512" xmlns:xlink="http://www.w3.org/1999/xlink" enable-background="new 0 0 512 512"><g><path d="M276.4,34.7c0,0,1.3-23.7-20.4-23.7c-21.4,0-20.4,23.7-20.4,23.7C129,45,45.4,135.1,45.4,244.3c0,11.3,9.1,20.4,20.4,20.4 h169.8v162.1c0,18.4-15,33.3-33.3,33.3c-18.4,0-33.3-15-33.3-33.3c0-11.3-9.1-20.4-20.4-20.4c-11.3,0-20.4,9.1-20.4,20.4 c0,40.9,33.3,74.2,74.2,74.2c40.9,0,74.2-33.3,74.2-74.2l0,0V264.7h169.8c11.3,0,20.4-9.1,20.4-20.4C466.6,135.1,383,45,276.4,34.7 z M87.5,223.9c10.1-84,81.8-149.4,168.5-149.4c86.7,0,158.4,65.3,168.5,149.4H87.5z" fill="#000000" style="fill: rgb(255, 255, 255);"></path></g></svg>