<!-- icon666.com - MILLIONS OF FREE VECTOR ICONS --><svg id="Layer_1" enable-background="new 0 0 479.979 479.979" viewBox="0 0 479.979 479.979" xmlns="http://www.w3.org/2000/svg"><g><path d="m306.989 127.979h-32c-4.418 0-8 3.582-8 8v112c0 4.418 3.582 8 8 8s8-3.582 8-8v-104h24c13.233 0 24 10.767 24 24s-10.767 24-24 24c-4.418 0-8 3.582-8 8s3.582 8 8 8c22.056 0 40-17.944 40-40s-17.944-40-40-40z"></path><path d="m392.989 171.979h-14c-4.418 0-8 3.582-8 8s3.582 8 8 8h14c5.514 0 10 4.486 10 10v6h-22c-14.337 0-26 11.663-26 26s11.663 26 26 26h30c4.418 0 8-3.582 8-8v-50c0-14.337-11.663-26-26-26zm10 68h-22c-5.514 0-10-4.486-10-10s4.486-10 10-10h22z"></path><path d="m243.476 338.413c-4.103 1.641-6.098 6.296-4.457 10.398 21.956 54.899-18.624 115.167-78.029 115.167-46.317 0-84-37.683-84-84 0-27.254 13.313-52.925 35.614-68.67 2.123-1.499 3.386-3.936 3.386-6.535v-261.7c0-10.546 7.089-20.018 17.238-23.032 18.261-5.426 37.66-5.381 55.773.078 10.002 3.014 16.988 12.453 16.988 22.956v261.699c0 4.418 3.582 8 8 8s8-3.582 8-8v-261.699c0-17.781-11.402-33.163-28.372-38.276-21.092-6.355-43.705-6.407-64.946-.096-16.888 5.017-28.682 20.795-28.682 38.37v257.665c-24.497 18.888-39 48.2-39 79.241 0 55.141 44.859 100 100 100 70.682 0 119.044-71.707 92.885-137.108-1.64-4.105-6.301-6.098-10.398-4.458z"></path><path d="m123.702 348.711c-3.807-2.25-8.71-.985-10.957 2.818-5.074 8.588-7.756 18.426-7.756 28.449 0 30.879 25.121 56 56 56s56-25.121 56-56c0-28.162-20.898-51.525-48-55.419v-55.452c0-4.418-3.582-8-8-8s-8 3.582-8 8v62.871c0 4.418 3.582 8 8 8 22.056 0 40 17.944 40 40s-17.944 40-40 40c-30.965 0-50.105-33.841-34.469-60.311 2.248-3.802.986-8.709-2.818-10.956z"></path><path d="m152.989 228.592c0 4.418 3.582 8 8 8s8-3.582 8-8v-93.613c0-4.418-3.582-8-8-8s-8 3.582-8 8z"></path><path d="m160.989 103.979c4.418 0 8-3.582 8-8v-13c0-4.418-3.582-8-8-8s-8 3.582-8 8v13c0 4.418 3.582 8 8 8z"></path></g></svg>